<svg xmlns="http://www.w3.org/2000/svg" viewBox="0 0 134.28 31.97"><defs><style>.cls-1{fill:#0071bc;stroke:#000;stroke-miterlimit:10;}</style></defs><title>COMPANY-NAMEAtivo 1</title><g id="Camada_2" data-name="Camada 2"><g id="Camada_1-2" data-name="Camada 1"><path class="cls-1" d="M12.56,10.94l4.65,1.41a8.49,8.49,0,0,1-1.48,3.27,6.45,6.45,0,0,1-2.5,2,9.41,9.41,0,0,1-3.8.67,11.11,11.11,0,0,1-4.58-.82,7.22,7.22,0,0,1-3.06-2.86A9.72,9.72,0,0,1,.5,9.34,8.93,8.93,0,0,1,2.77,2.79,8.61,8.61,0,0,1,9.18.5a8.76,8.76,0,0,1,5.11,1.31,7.72,7.72,0,0,1,2.76,4l-4.69,1a3.79,3.79,0,0,0-.52-1.15,3,3,0,0,0-1.09-.94,3.12,3.12,0,0,0-1.44-.33A3.13,3.13,0,0,0,6.55,5.92a6.14,6.14,0,0,0-.73,3.39c0,1.9.29,3.21.87,3.91a3,3,0,0,0,2.43,1.06,3,3,0,0,0,2.31-.85A5.34,5.34,0,0,0,12.56,10.94Z"/><path class="cls-1" d="M19.12,9.39a8.88,8.88,0,0,1,2.34-6.55A8.85,8.85,0,0,1,28,.5,9,9,0,0,1,34.6,2.8a8.68,8.68,0,0,1,2.32,6.45,10.63,10.63,0,0,1-1,4.94,7.18,7.18,0,0,1-2.93,3,9.63,9.63,0,0,1-4.78,1.08,11,11,0,0,1-4.81-.93,7.24,7.24,0,0,1-3.09-2.93A9.84,9.84,0,0,1,19.12,9.39Zm5.31,0a5.74,5.74,0,0,0,1,3.74A3.28,3.28,0,0,0,28,14.29a3.29,3.29,0,0,0,2.65-1.11c.62-.74.93-2.07.93-4a5.25,5.25,0,0,0-1-3.54A3.32,3.32,0,0,0,28,4.52,3.23,3.23,0,0,0,25.4,5.66,5.75,5.75,0,0,0,24.43,9.42Z"/><path class="cls-1" d="M39.72.79h7l2.7,10.46L52.07.79h7V18H54.7V4.87L51.35,18H47.41L44.07,4.87V18H39.72Z"/><path class="cls-1" d="M62.41.79h8.82a6,6,0,0,1,4.32,1.37A5.16,5.16,0,0,1,77,6.07a5.26,5.26,0,0,1-1.57,4.06,6.74,6.74,0,0,1-4.77,1.47H67.74V18H62.41Zm5.33,7.33H69a3.31,3.31,0,0,0,2.16-.54,1.72,1.72,0,0,0,.62-1.36,1.89,1.89,0,0,0-.54-1.37,2.77,2.77,0,0,0-2-.56H67.74Z"/><path class="cls-1" d="M88.29,15.14h-6L81.42,18H76L82.46.79h5.79L94.71,18H89.15Zm-1.1-3.72-1.9-6.17-1.88,6.17Z"/><path class="cls-1" d="M96.43.79h5l6.47,9.51V.79h5V18h-5l-6.44-9.43V18h-5Z"/><path class="cls-1" d="M114.65.79h5.9L124,6.59l3.47-5.8h5.86l-6.68,10V18h-5.32V10.78Z"/><path d="M50.83,32V21.47H52C53.67,24,57.51,29.86,58.17,31h0c-.09-1.52-.07-3.06-.07-4.77V21.47h.82V32H57.82c-1.56-2.43-5.46-8.53-6.21-9.69h0c.07,1.38.06,2.91.06,4.82V32Z"/><path d="M63,28.34,61.66,32h-.82l3.85-10.5h1l4,10.5h-.88l-1.37-3.63Zm4.15-.75c-1.17-3.12-1.77-4.62-2-5.32h0c-.26.79-.93,2.65-1.88,5.32Z"/><path d="M80.62,27.14c0-2.05,0-4,.06-5.07h0c-.42,1.41-2.55,6.59-3.89,9.9H76c-1-2.56-3.21-8.32-3.69-9.91h0c.07,1.2.1,3.64.1,5.44V32h-.81V21.47h1.22c1.44,3.6,3.25,8.31,3.64,9.5h0c.24-.77,2.34-6,3.81-9.5h1.2V32h-.81Z"/><path d="M90.69,26.81H85.33v4.41H91.2l-.12.75H84.52V21.47H91v.75H85.33v3.84h5.36Z"/></g></g></svg>