<svg xmlns="http://www.w3.org/2000/svg" xmlns:xlink="http://www.w3.org/1999/xlink" viewBox="0 0 220.49 236.51"><defs><style>.cls-1{fill:#fff;}.cls-2{fill:url(#Gradiente_sem_nome_16);}.cls-3{fill:url(#Gradiente_sem_nome_15);}.cls-4{fill:url(#Gradiente_sem_nome_16-2);}</style><linearGradient id="Gradiente_sem_nome_16" x1="10.01" y1="22.76" x2="220.49" y2="22.76" gradientUnits="userSpaceOnUse"><stop offset="0" stop-color="#6273b6"/><stop offset="1" stop-color="#17b4b6"/></linearGradient><linearGradient id="Gradiente_sem_nome_15" y1="183.26" x2="212.98" y2="183.26" gradientUnits="userSpaceOnUse"><stop offset="0" stop-color="#17b4b6"/><stop offset="1" stop-color="#6273b6"/></linearGradient><linearGradient id="Gradiente_sem_nome_16-2" x1="10.01" y1="103.75" x2="212.98" y2="103.75" xlink:href="#Gradiente_sem_nome_16"/></defs><g id="Camada_2" data-name="Camada 2"><g id="Camada_1-2" data-name="Camada 1"><path class="cls-1" d="M10.15,229.72a2.82,2.82,0,0,0-.67-1.91,8.39,8.39,0,0,0-1.66-1.49c-.66-.47-1.39-.95-2.17-1.43a13.23,13.23,0,0,1-2.17-1.72,8.52,8.52,0,0,1-1.66-2.31,7.27,7.27,0,0,1-.67-3.25,7.56,7.56,0,0,1,.55-3,5.32,5.32,0,0,1,1.48-2,6,6,0,0,1,2.24-1.16A10.35,10.35,0,0,1,8.19,211a15.1,15.1,0,0,1,3.32.35,9.15,9.15,0,0,1,2.56.95L12.7,216.2a6.33,6.33,0,0,0-1.76-.76,8.62,8.62,0,0,0-2.54-.36,3.37,3.37,0,0,0-2.1.57,1.93,1.93,0,0,0-.74,1.64A2.56,2.56,0,0,0,6.23,219a9.72,9.72,0,0,0,1.66,1.46c.67.46,1.39,1,2.17,1.45a12.51,12.51,0,0,1,2.17,1.75A8.46,8.46,0,0,1,13.89,226a7.1,7.1,0,0,1,.67,3.21,8.7,8.7,0,0,1-.54,3.21,5.82,5.82,0,0,1-1.54,2.26,6.57,6.57,0,0,1-2.4,1.35,10.13,10.13,0,0,1-3.12.46,15.21,15.21,0,0,1-3.79-.43,9.47,9.47,0,0,1-2.51-.94l1.44-3.95A10.7,10.7,0,0,0,4,232a7.84,7.84,0,0,0,2.63.42Q10.15,232.44,10.15,229.72Z"/><path class="cls-1" d="M17.64,211.52H29.89v4H22.05v6h7.1v4.05h-7.1V232h8V236H17.64Z"/><path class="cls-1" d="M44.2,211.52h4.17V227.4q0,4.77-1.94,6.9a6.93,6.93,0,0,1-5.38,2.14c-2.68,0-4.65-.7-5.89-2.09s-1.88-3.5-1.88-6.35V211.52h4.41v15.71a7.61,7.61,0,0,0,.77,4A2.87,2.87,0,0,0,41,232.37a2.65,2.65,0,0,0,2.45-1.2,7.94,7.94,0,0,0,.73-3.94Z"/><path class="cls-1" d="M60.72,232.76a8,8,0,0,0,1.88.86,8.59,8.59,0,0,0,2.74.4,5,5,0,0,0,3.19-1,3.6,3.6,0,0,0,1.22-3,4.07,4.07,0,0,0-.7-2.38,8.77,8.77,0,0,0-1.75-1.87q-1-.85-2.25-1.68a18.18,18.18,0,0,1-2.26-1.82A9.21,9.21,0,0,1,61,220a6.41,6.41,0,0,1-.7-3.11,5.26,5.26,0,0,1,1.77-4.36,7.13,7.13,0,0,1,4.6-1.41,13.87,13.87,0,0,1,3.11.31,7.9,7.9,0,0,1,2.21.81l-.84,2.3a7.33,7.33,0,0,0-1.8-.7,10.6,10.6,0,0,0-2.72-.31,3.77,3.77,0,0,0-2.8.93,3.21,3.21,0,0,0-.91,2.33,3.61,3.61,0,0,0,.7,2.17,10.1,10.1,0,0,0,1.75,1.78c.7.56,1.46,1.13,2.26,1.7a17.1,17.1,0,0,1,2.26,1.9,10,10,0,0,1,1.75,2.38,6.67,6.67,0,0,1,.7,3.16,6.41,6.41,0,0,1-1.82,4.83,7.15,7.15,0,0,1-5.15,1.75,12.58,12.58,0,0,1-3.44-.39,9.45,9.45,0,0,1-2.16-.87Z"/><path class="cls-1" d="M77.1,211.52h2.63V236H77.1Z"/><path class="cls-1" d="M98.35,213.93h-6V236H89.7V213.93h-6v-2.41H98.35Z"/><path class="cls-1" d="M101.78,211.52h10.88v2.41H104.4v8.3H112v2.41h-7.6v9h8.44V236H101.78Z"/><path class="cls-1" d="M124.88,223.77q0-6.24,2-9.46A6.68,6.68,0,0,1,133,211.1a7.33,7.33,0,0,1,3.75.89,6.9,6.9,0,0,1,2.5,2.53,12.87,12.87,0,0,1,1.42,4,27.92,27.92,0,0,1,.45,5.25q0,6.22-2,9.45a6.73,6.73,0,0,1-6.11,3.22,7.26,7.26,0,0,1-3.71-.9,7.1,7.1,0,0,1-2.52-2.53,12.41,12.41,0,0,1-1.42-4A29,29,0,0,1,124.88,223.77Zm2.76,0a24.64,24.64,0,0,0,.3,3.92,13,13,0,0,0,.93,3.25,6.18,6.18,0,0,0,1.64,2.24A3.74,3.74,0,0,0,133,234a4.32,4.32,0,0,0,4-2.52q1.37-2.52,1.37-7.73a24.35,24.35,0,0,0-.3-3.89,13.14,13.14,0,0,0-.93-3.27,6.09,6.09,0,0,0-1.64-2.26,3.79,3.79,0,0,0-2.49-.84,4.29,4.29,0,0,0-4,2.52Q127.65,218.55,127.64,223.77Z"/><path class="cls-1" d="M149.27,220.48l-1.5-3.86h-.11l.39,3.86V236h-2.52V211.13h1.57L156.17,227l1.43,3.67h.14l-.38-3.67v-15.5h2.52V236.4h-1.61Z"/><path class="cls-1" d="M176.85,236H165.06v-24.5h2.62V233.6h9.17Z"/><path class="cls-1" d="M180.81,211.52h2.62V236h-2.62Z"/><path class="cls-1" d="M192.88,220.48l-1.5-3.86h-.11l.39,3.86V236h-2.52V211.13h1.57L199.78,227l1.43,3.67h.14L201,227v-15.5h2.52V236.4h-1.61Z"/><path class="cls-1" d="M208.67,211.52h10.88v2.41h-8.26v8.3h7.6v2.41h-7.6v9h8.44V236H208.67Z"/></g><g id="Camada_4" data-name="Camada 4"><polygon class="cls-2" points="220.49 45.52 10.01 45.52 10.01 0 200.99 0 220.49 45.52"/><polygon class="cls-3" points="0 206.02 212.98 206.02 212.98 160.5 19.73 160.5 0 206.02"/></g><g id="Camada_5" data-name="Camada 5"><path class="cls-4" d="M170.53,206.49,213,206V160.5L54.83,1H10V46.52l159.86,160Z"/></g></g></svg>